<?xml version="1.0" standalone="no"?>
<!DOCTYPE svg PUBLIC "-//W3C//DTD SVG 20010904//EN"
 "http://www.w3.org/TR/2001/REC-SVG-20010904/DTD/svg10.dtd">
<svg version="1.0" xmlns="http://www.w3.org/2000/svg"
 width="1000.000000pt" height="1000.000000pt" viewBox="0 0 1000.000000 1000.000000"
 preserveAspectRatio="xMidYMid meet">
<metadata>
Created by potrace 1.11, written by Peter Selinger 2001-2013
</metadata>
<g transform="translate(0.000000,1000.000000) scale(0.100000,-0.100000)"
fill="#000000" stroke="none">
<path d="M5060 9529 c-25 -16 -54 -33 -65 -38 -11 -5 -65 -35 -120 -68 -55
-32 -107 -62 -115 -66 -8 -4 -24 -13 -35 -20 -11 -7 -60 -35 -110 -64 -49 -28
-130 -75 -180 -104 -49 -28 -148 -86 -220 -127 -71 -41 -143 -83 -160 -92 -16
-10 -88 -51 -160 -92 -222 -128 -638 -369 -675 -391 -19 -12 -37 -22 -40 -22
-3 0 -16 -8 -30 -17 -23 -15 -236 -138 -320 -185 -19 -11 -74 -43 -122 -72
-48 -28 -91 -51 -97 -51 -6 0 -11 -4 -11 -10 0 -5 -6 -10 -14 -10 -7 0 -19 -7
-26 -15 -7 -9 -15 -13 -18 -10 -3 3 -12 -1 -21 -8 -14 -12 -60 -39 -211 -124
-44 -25 -210 -121 -230 -133 -84 -51 -357 -206 -367 -208 -7 -2 -13 -8 -13
-13 0 -5 -4 -9 -9 -9 -5 0 -64 -32 -132 -71 -68 -40 -185 -107 -259 -150
l-135 -78 -1 -2280 -1 -2281 76 -44 c42 -24 92 -54 111 -65 19 -11 42 -24 50
-28 8 -4 49 -27 90 -51 159 -94 243 -142 251 -142 5 0 9 -4 9 -10 0 -5 4 -10
10 -10 5 0 128 -68 272 -152 145 -84 286 -165 313 -180 28 -16 64 -37 80 -47
17 -10 57 -33 90 -51 33 -18 72 -41 87 -51 14 -11 29 -19 32 -19 4 0 23 -11
44 -24 20 -13 102 -61 182 -106 80 -46 181 -104 225 -130 44 -26 100 -58 125
-72 25 -14 126 -72 225 -130 99 -57 200 -116 225 -130 25 -14 101 -58 168 -97
68 -39 128 -71 133 -71 5 0 9 -3 9 -8 0 -4 21 -18 48 -32 26 -13 75 -41 110
-62 34 -21 65 -38 67 -38 3 0 24 -12 48 -27 23 -15 53 -33 67 -40 14 -7 32
-17 40 -23 8 -6 183 -107 389 -225 l374 -216 186 108 c102 59 254 146 336 194
414 239 492 284 515 296 14 8 39 23 55 33 17 11 37 23 45 27 8 4 38 20 65 36
62 37 107 62 165 95 25 13 50 28 55 32 6 5 37 23 70 40 33 18 67 38 75 45 8 7
30 18 48 26 17 8 32 17 32 21 0 5 5 8 12 8 7 0 28 11 47 24 20 13 164 96 321
186 157 90 329 189 383 221 54 33 100 59 102 59 3 0 192 109 225 130 8 5 53
31 99 57 86 49 129 74 262 151 41 24 94 54 119 69 25 14 81 46 125 72 44 26
87 51 95 55 8 4 24 12 35 19 17 10 65 38 166 97 14 8 80 46 145 83 106 60 148
85 164 95 9 6 5 4530 -3 4525 -5 -3 -4 4 2 15 9 18 6 23 -25 41 -19 12 -37 21
-39 21 -2 0 -38 20 -79 45 -42 25 -81 45 -86 45 -6 0 -10 5 -10 10 0 6 -4 10
-9 10 -5 0 -42 19 -83 43 -40 24 -93 55 -118 69 -47 26 -83 47 -490 283 -140
81 -280 162 -310 178 -30 17 -95 55 -144 84 -49 29 -90 53 -92 53 -2 0 -25 13
-51 29 -81 50 -157 92 -175 98 -10 3 -18 9 -18 14 0 5 -7 9 -15 9 -8 0 -15 5
-15 10 0 6 -3 9 -7 8 -5 -1 -39 16 -78 39 -74 43 -121 70 -195 112 -25 13 -47
27 -50 31 -3 3 -23 14 -45 25 -22 11 -41 23 -43 28 -2 4 -8 7 -13 7 -5 0 -42
19 -82 43 -67 41 -422 246 -512 297 -22 13 -53 31 -70 41 -16 11 -37 22 -45
26 -8 4 -48 26 -88 50 -40 24 -77 43 -82 43 -6 0 -10 5 -10 10 0 6 -4 10 -9
10 -7 0 -120 62 -181 100 -63 39 -173 100 -181 100 -5 0 -9 5 -9 10 0 6 -5 10
-11 10 -6 0 -71 36 -146 80 -74 44 -139 80 -143 80 -4 0 -18 8 -31 18 -23 18
-156 93 -161 91 -2 0 -23 -14 -48 -30z"/>
</g>
</svg>
